<?xml version="1.0" standalone="no"?>
<!DOCTYPE svg PUBLIC "-//W3C//DTD SVG 20010904//EN"
 "http://www.w3.org/TR/2001/REC-SVG-20010904/DTD/svg10.dtd">
<svg version="1.0" xmlns="http://www.w3.org/2000/svg"
 width="512.000000pt" height="512.000000pt" viewBox="0 0 512.000000 512.000000"
 preserveAspectRatio="xMidYMid meet">
<metadata>
Created by potrace 1.14, written by Peter Selinger 2001-2017
</metadata>
<g transform="translate(0.000000,512.000000) scale(0.100000,-0.100000)"
fill="#000000" stroke="none">
<path d="M700 4944 c-110 -40 -195 -136 -214 -244 -3 -14 -5 -861 -5 -1882
l-1 -1858 -58 0 c-109 0 -189 -45 -235 -133 -21 -40 -22 -55 -25 -307 -2 -146
0 -280 3 -297 12 -68 -180 -63 2395 -63 2491 0 2376 -2 2394 45 3 9 6 135 6
279 0 307 -5 338 -72 403 -51 50 -110 73 -189 73 l-59 0 -1 1858 c0 1021 -3
1870 -5 1886 -8 50 -47 119 -89 161 -158 155 -420 110 -513 -89 -29 -62 -30
-71 -31 -361 l-1 -260 -77 0 c-69 0 -83 -4 -121 -28 -41 -27 -45 -27 -62 -12
-46 41 -184 54 -243 22 -43 -23 -93 -72 -108 -106 l-14 -31 -656 0 -657 0 -6
23 c-7 30 -68 91 -114 113 -42 21 -143 27 -182 10 -14 -5 -38 -19 -53 -29 -24
-16 -31 -17 -45 -6 -36 29 -64 40 -120 45 -60 6 -130 -12 -163 -42 -16 -15
-20 -14 -46 4 -39 28 -94 41 -158 38 l-55 -3 -1 261 c-1 292 -2 304 -31 363
-71 143 -244 217 -388 167z m188 -171 c14 -11 35 -32 46 -47 l21 -27 3 -1870
2 -1869 -160 0 -160 0 0 1855 c0 1550 2 1861 14 1888 17 40 54 75 92 87 42 14
112 5 142 -17z m3504 10 c15 -7 40 -30 55 -50 l28 -36 3 -1869 2 -1868 -160 0
-160 0 0 1854 c0 1290 3 1863 11 1883 32 86 138 127 221 86z m-3132 -809 c12
-12 16 -52 18 -209 3 -184 2 -195 -17 -214 -42 -42 -113 -34 -131 14 -6 15
-10 106 -10 203 0 153 3 180 18 198 9 12 24 24 32 27 23 9 73 -1 90 -19z m320
0 c12 -12 16 -52 18 -209 3 -184 2 -195 -17 -214 -42 -42 -113 -34 -131 14
-15 40 -13 378 3 397 31 40 93 46 127 12z m299 11 c16 -8 31 -25 35 -37 3 -13
6 -99 6 -191 0 -184 -9 -221 -55 -233 -35 -9 -85 14 -96 43 -5 13 -9 101 -9
194 0 130 3 177 15 199 22 42 55 51 104 25z m1749 9 c44 -12 52 -49 52 -234 0
-133 -3 -177 -15 -200 -20 -38 -57 -48 -101 -27 -43 21 -46 39 -42 255 3 171
3 173 28 192 27 21 41 23 78 14z m352 -20 c12 -12 16 -50 18 -187 2 -94 1
-186 -3 -203 -12 -69 -109 -85 -140 -24 -20 38 -22 377 -2 402 31 40 93 46
127 12z m-620 -214 l0 -80 -640 0 -640 0 0 80 0 80 640 0 640 0 0 -80z m20
-254 c0 -22 82 -108 117 -122 79 -33 173 -26 236 18 27 19 27 19 55 0 43 -30
86 -41 151 -37 l61 2 0 -169 0 -169 -55 6 c-59 7 -112 -5 -157 -37 -28 -19
-28 -19 -55 0 -95 65 -232 48 -313 -40 -16 -18 -33 -43 -36 -55 l-6 -23 -259
0 -259 0 -6 25 c-10 40 -97 111 -152 125 -110 26 -206 -13 -266 -108 l-26 -42
-333 0 -332 0 -13 29 c-54 122 -232 168 -345 89 -24 -18 -30 -18 -45 -6 -39
32 -77 43 -149 42 l-73 -1 0 168 0 167 60 -3 c64 -4 109 7 153 37 27 19 27 19
55 0 70 -49 167 -53 249 -10 29 15 54 24 57 19 12 -19 84 -44 134 -47 78 -4
134 19 187 78 25 28 45 56 45 64 0 12 103 14 660 14 550 0 660 -2 660 -14z
m-2141 -641 c16 -8 31 -25 35 -37 7 -29 8 -346 0 -375 -16 -59 -110 -68 -139
-13 -21 42 -22 358 0 400 22 42 55 51 104 25z m320 0 c16 -8 31 -25 35 -37 7
-29 8 -346 0 -375 -16 -59 -110 -68 -139 -13 -21 42 -22 358 0 400 22 42 55
51 104 25z m1141 -11 c12 -12 16 -51 18 -199 4 -202 -4 -239 -53 -251 -35 -9
-85 14 -96 43 -14 38 -12 376 4 395 31 40 93 46 127 12z m960 0 c12 -12 16
-51 18 -199 4 -202 -4 -239 -53 -251 -35 -9 -85 14 -96 43 -14 38 -12 376 4
395 31 40 93 46 127 12z m288 20 c44 -12 52 -48 52 -244 0 -166 -2 -182 -20
-200 -42 -42 -112 -33 -131 17 -6 17 -9 100 -7 211 3 182 3 183 28 202 27 21
41 23 78 14z m-1548 -234 l0 -80 -320 0 -320 0 0 80 0 80 320 0 320 0 0 -80z
m960 0 l0 -80 -240 0 -240 0 0 80 0 80 240 0 240 0 0 -80z m-932 -268 c6 -16
26 -42 42 -59 107 -110 294 -87 374 44 l26 43 254 0 254 0 6 -24 c9 -36 98
-111 149 -126 66 -18 145 -5 200 32 27 19 27 19 55 0 40 -29 106 -44 163 -38
l49 6 0 -169 0 -168 -55 3 c-64 3 -119 -10 -157 -38 -27 -19 -29 -19 -55 -1
-48 33 -76 40 -144 39 -54 -1 -74 -7 -108 -29 l-41 -27 -28 20 c-15 11 -53 25
-85 32 -65 14 -129 2 -178 -33 -29 -20 -29 -20 -56 -1 -69 49 -182 52 -253 7
-49 -31 -73 -57 -92 -97 l-13 -28 -655 0 -655 0 -13 30 c-18 40 -73 91 -120
111 -23 10 -62 16 -105 15 l-67 -2 0 167 0 166 73 -1 c72 -1 110 10 149 42 15
12 21 12 45 -6 69 -49 182 -52 253 -7 49 31 73 57 92 98 l13 27 335 0 335 0
13 -28z m-1200 -618 c44 -12 52 -48 52 -241 0 -159 -2 -181 -19 -203 -15 -19
-29 -25 -60 -25 -74 0 -76 7 -76 236 l0 200 25 19 c27 21 41 23 78 14z m1771
-9 c16 -8 31 -25 35 -37 3 -13 6 -103 6 -200 0 -164 -2 -180 -20 -198 -41 -41
-112 -33 -130 15 -6 15 -10 103 -10 196 0 130 3 177 15 199 22 42 55 51 104
25z m341 -11 c12 -12 16 -52 18 -209 3 -184 2 -195 -17 -214 -42 -42 -113 -34
-131 14 -15 40 -13 378 3 397 31 40 93 46 127 12z m299 11 c16 -8 31 -25 35
-37 3 -13 6 -103 6 -200 0 -164 -2 -180 -20 -198 -41 -41 -112 -33 -130 15 -6
15 -10 103 -10 196 0 130 3 177 15 199 22 42 55 51 104 25z m341 -11 c12 -12
16 -50 18 -187 2 -94 1 -186 -3 -203 -8 -43 -46 -68 -91 -59 -57 10 -64 37
-64 242 0 154 3 181 18 199 9 12 24 24 32 27 23 9 73 -1 90 -19z m-1260 -214
l0 -80 -640 0 -640 0 0 80 0 80 640 0 640 0 0 -80z m20 -255 c0 -23 76 -101
117 -120 72 -34 173 -27 236 17 27 19 27 19 55 0 78 -54 188 -54 265 0 27 19
27 19 55 0 78 -54 188 -54 265 0 27 19 27 19 55 0 45 -32 98 -44 157 -37 l55
6 0 -86 0 -85 -1440 0 -1440 0 0 84 0 84 60 -3 c85 -6 140 16 195 77 25 28 45
56 45 64 0 12 103 14 660 14 584 0 660 -2 660 -15z m2019 -480 c16 -8 31 -25
35 -37 3 -13 6 -114 6 -225 l0 -203 -2241 0 -2240 0 3 221 3 220 25 19 c24 19
71 20 2203 20 1890 0 2182 -2 2206 -15z"/>
</g>
</svg>
